# xmcd
# 
# Track frame offsets:
#     150
#     20150
#     35441
#     55740
#     72014
# 
# Disc length: 1152
# 
# Revision: 0
# Processed by: cddbd v1.5.2PL0 Copyright (c) Steve Scherf et al.
# Submitted via: BonkEnc v1.0.8
# 
DISCID=3c047e05
DTITLE=The Dutchmen - Cobretti
DYEAR=2005
DGENRE=Rock
TTITLE0=Ass-to-Mouth
TTITLE1=Brutal Truth
TTITLE2=Show
TTITLE3=Stranger in a Glass House
TTITLE4=You Fight Like a Little Girl
EXTD=
EXTT0=
EXTT1=
EXTT2=
EXTT3=
EXTT4=
PLAYORDER=
